<svg width="271" height="345" viewBox="0 0 271 345" fill="none" xmlns="http://www.w3.org/2000/svg">
<g clip-path="url(#clip0_321_183)">
<path d="M193.657 295.506C190.195 293.298 186.193 292.092 182.092 292.022C182.092 292.022 166.692 291.805 166.625 292.022C166.559 292.238 166.626 344.387 166.774 344.526C166.923 344.665 177.108 344.928 177.554 344.577L177.672 324.291C185.372 324.399 187.277 323.822 189.992 323.013C192.369 322.302 199.453 318.22 199.987 310.504C200.382 305.237 198.354 298.629 193.657 295.506ZM189.279 311.483C188.812 312.193 188.202 312.797 187.489 313.255C186.775 313.713 185.974 314.016 185.136 314.143C183.016 314.483 177.852 314.555 177.616 314.328C177.38 314.102 177.518 300.778 177.795 300.562C178.073 300.345 181.332 300.356 182.441 300.449C183.853 300.572 185.619 300.747 187.354 302.438C189.089 304.129 189.448 304.809 189.761 306.891C190.033 308.726 189.792 310.545 189.279 311.488V311.483Z" fill="#F2F1EA"/>
<path d="M139.578 295.506C136.118 293.298 132.118 292.093 128.018 292.022C128.018 292.022 112.619 291.805 112.552 292.022C112.485 292.238 112.552 344.387 112.696 344.526C112.839 344.665 123.029 344.928 123.501 344.577L123.619 324.291C131.319 324.399 133.223 323.822 135.939 323.013C138.311 322.302 145.4 318.22 145.933 310.504C146.298 305.237 144.275 298.629 139.578 295.506ZM135.205 311.483C134.738 312.193 134.128 312.796 133.414 313.254C132.701 313.712 131.9 314.015 131.062 314.143C128.942 314.483 123.778 314.555 123.537 314.328C123.296 314.102 123.445 300.778 123.722 300.562C123.999 300.345 127.253 300.356 128.342 300.449C129.753 300.572 131.524 300.747 133.259 302.438C134.994 304.129 135.354 304.809 135.667 306.891C135.959 308.726 135.713 310.545 135.205 311.488V311.483Z" fill="#F2F1EA"/>
<path d="M27.8685 295.753C24.4082 293.546 20.4075 292.342 16.3084 292.274C16.3084 292.274 0.908636 292.053 0.841903 292.274C0.775171 292.496 0.841903 344.639 0.985634 344.773C1.12937 344.907 11.3189 345.175 11.7655 344.83L11.8835 324.538C19.5834 324.652 21.4879 324.075 24.2034 323.26C26.58 322.549 33.6691 318.467 34.2029 310.751C34.5931 305.489 32.5654 298.877 27.8685 295.753ZM23.495 311.731C23.0269 312.44 22.4167 313.043 21.7034 313.501C20.9902 313.96 20.1895 314.265 19.3524 314.395C17.2324 314.73 12.0683 314.803 11.8271 314.576C11.5858 314.349 11.7347 301.026 12.0119 300.815C12.2891 300.603 15.5435 300.603 16.6318 300.696C18.0434 300.82 19.8144 300.995 21.5495 302.685C23.2845 304.376 23.6438 305.056 23.957 307.138C24.2495 308.953 24.0032 310.788 23.495 311.741V311.731Z" fill="#F2F1EA"/>
<path d="M91.8443 311.726C91.064 298.573 84.1854 292.048 72.3379 292.048C60.7213 292.048 53.119 297.882 52.5132 311.726C51.8613 326.59 60.4646 331.564 72.0812 331.564C83.6978 331.564 92.7272 326.58 91.8443 311.726ZM71.6911 323.755C64.8125 323.755 63.6216 318.905 63.6216 311.174C63.6216 304.237 65.793 298.609 71.9888 298.495C78.7955 298.366 80.2328 304.257 80.2328 311.195C80.2328 319.034 80.0224 323.755 71.6911 323.755Z" fill="#F2F1EA"/>
<path d="M76.6088 341.866C76.5661 342.354 76.4209 342.826 76.1827 343.253C76.0058 343.579 75.743 343.85 75.423 344.036L75.0739 344.278C74.447 344.598 73.7629 344.789 73.0617 344.84C72.9796 344.845 72.8973 344.845 72.8153 344.84C72.3011 344.861 71.7862 344.84 71.2753 344.778C70.4046 344.647 69.6082 344.211 69.0269 343.546C68.7956 343.273 68.6211 342.956 68.5136 342.614C68.4149 342.334 68.3612 342.04 68.3545 341.743C68.3545 341.603 68.3545 341.459 68.3545 341.335C68.3545 341.212 68.3545 341.232 68.3545 341.186C68.3545 341.14 68.3545 341 68.3545 340.913C68.3545 340.717 68.3545 340.537 68.3853 340.351C68.4254 339.988 68.5099 339.631 68.6368 339.289C68.7464 339.004 68.8858 338.731 69.0526 338.475C69.3129 338.094 69.6665 337.787 70.0793 337.583C70.5473 337.345 71.0525 337.188 71.573 337.119C72.3517 337.034 73.1386 337.064 73.9087 337.207C74.2253 337.305 74.5327 337.431 74.8275 337.583C75.2283 337.747 75.5814 338.009 75.8542 338.346C76.1038 338.63 76.2941 338.961 76.4137 339.32C76.5532 339.781 76.6342 340.257 76.655 340.738C76.655 341.067 76.655 341.361 76.655 341.65C76.655 341.701 76.655 341.758 76.655 341.81" fill="#F2F1EA"/>
<path d="M214.606 292.573C214.832 292.233 225.16 292.058 225.986 292.429C226.977 292.862 235.042 310.983 235.74 311.112C236.207 311.2 243.393 292.64 243.758 292.429C244.271 292.14 255.251 292.042 255.467 292.429C255.785 293.006 241.448 321.08 241.053 323.827C240.811 325.466 241.663 344.144 241.053 344.603C240.616 344.928 230.637 345.299 230.75 344.603C231.043 342.835 230.55 325.982 230.391 324.925C229.811 320.982 214.308 293.022 214.606 292.573Z" fill="#F2F1EA"/>
<path d="M31.8261 44.7163L34.48 46.7779L33.8486 47.5974L33.7921 47.6695L33.0375 48.6488C32.4061 49.4786 31.7491 50.3342 31.0972 51.1691C30.897 51.4268 30.6814 51.6845 30.476 51.9268C30.1988 52.2618 29.3827 53.308 29.2441 53.473C28.9521 53.8054 28.6989 54.1703 28.4895 54.5605C29.3827 55.2614 30.2656 55.9469 31.0253 56.5345H31.0561L31.1074 56.4778C31.2512 56.318 31.3846 56.1531 31.5232 55.9624L33.0221 54.0296C33.7973 52.9988 34.6391 51.968 35.4194 50.9372C35.4964 50.8444 35.5785 50.7568 35.6504 50.6795L35.7376 50.5867L35.8916 50.4115L38.3248 52.4164L38.2632 52.5916C37.6575 53.5091 36.1226 55.4624 35.9994 55.6119C35.8146 55.849 34.1771 57.9621 34.0077 58.158C33.8383 58.3538 33.7716 58.4311 33.6638 58.5755C34.29 59.0909 35.0754 59.7145 35.7171 60.2196L36.4871 60.8381C37.2365 61.4359 37.9501 62.0132 38.6892 62.6162L39.3052 63.0904L38.6533 63.9356L38.4223 64.2191C38.3292 64.3225 38.2418 64.4309 38.1605 64.5438C38.0168 64.7397 37.8628 64.9355 37.7139 65.1314L36.9593 66.157L36.446 65.7447C36.3728 65.6957 36.3025 65.6423 36.2355 65.5849L36.1688 65.5334L35.6042 65.085C34.9471 64.5696 34.326 64.0542 33.6792 63.5388L32.9605 62.9255C32.5755 62.5956 32.1751 62.2503 31.7645 61.941C30.9688 61.3432 30.1732 60.7092 29.4083 60.1011L28.2328 59.1733C27.5193 58.6115 26.8058 58.0652 26.1128 57.5292C25.5994 57.122 23.7925 55.7407 23.7053 55.6531L23.2792 55.3233L23.5667 54.947L23.5975 54.8955C23.7053 54.7409 25.5378 52.37 28.1045 49.0457C29.1722 47.6696 31.6978 44.5874 31.6978 44.5874L31.8261 44.7163ZM66.568 32.1405L67.4201 33.3001C67.6973 33.6867 67.9745 34.0784 68.3081 34.5577C68.3627 34.6398 68.4075 34.728 68.4416 34.8206C68.4399 34.8412 68.4399 34.8618 68.4416 34.8824L68.5135 35.037L68.4262 35.1865C68.4253 35.2037 68.4253 35.2209 68.4262 35.238C68.3929 35.3115 68.3438 35.3766 68.2825 35.4287L68.1952 35.4958C67.8359 35.7741 67.4663 36.0627 67.0916 36.341L64.5249 38.2635L59.9512 41.6703L58.6884 42.6135L58.6474 42.6444L58.4523 42.7887L58.4061 42.8196L57.749 43.2938L57.2357 42.6186L57.1895 42.5568L56.861 42.1135L56.7326 41.9383L55.4801 40.2014L47.8572 29.7748C47.8572 29.7387 47.8059 29.7026 47.7854 29.6666L47.4107 29.1511L47.8572 28.8368C47.8856 28.8066 47.9165 28.779 47.9496 28.7543C48.0677 28.6564 48.1755 28.5842 48.2884 28.5069L48.5092 28.3471L49.6488 27.5019L50.3623 26.9865L51.0193 27.7647L51.1836 27.976C51.6969 28.6357 52.2102 29.3161 52.7236 30.0016C53.3396 30.8468 53.9556 31.7024 54.5561 32.5322C55.1567 33.362 55.7111 34.1351 56.2963 34.9391C56.8815 35.7431 57.441 36.4853 57.9954 37.243L58.6166 38.0831C59.1915 37.6656 59.9512 37.1193 60.6699 36.5369L61.83 35.6658L62.677 35.0267C62.8644 34.8794 63.0616 34.7451 63.2673 34.6247C63.849 34.2751 64.3942 33.8676 64.8945 33.4084C65.1204 33.2074 65.3617 33.027 65.5978 32.8517L66.568 32.1405ZM80.6434 20.4872C80.1506 19.6967 79.8029 18.8239 79.6167 17.9102C79.6167 17.7505 79.5602 17.5958 79.5294 17.4361C79.452 17.0969 79.4005 16.7523 79.3754 16.4053C79.3127 14.9892 79.5781 13.5778 80.1506 12.282C80.416 11.6767 80.7447 11.1014 81.131 10.5657C81.8095 9.63043 82.6683 8.84168 83.6566 8.24644C84.1096 7.95321 84.5812 7.6898 85.0682 7.45787C85.4928 7.26447 85.9323 7.1059 86.3823 6.9837C87.4546 6.66559 88.5706 6.52118 89.6882 6.55592H89.9192C90.1809 6.55592 90.4325 6.58169 90.7251 6.62292C92.7015 6.87439 94.5337 7.7942 95.9199 9.23085C96.2473 9.55639 96.5558 9.90056 96.8439 10.2617C96.9489 10.4009 97.0384 10.5513 97.1108 10.7101C97.1484 10.7918 97.1913 10.871 97.2392 10.9471C97.5294 11.3945 97.772 11.8713 97.963 12.3697C98.2837 13.2044 98.4724 14.0843 98.5225 14.9776C98.5582 15.8428 98.4823 16.709 98.2966 17.5546C98.1015 18.3816 97.7977 19.1789 97.3932 19.9254C97.1817 20.3252 96.9342 20.7047 96.654 21.0593C95.9856 21.973 95.1428 22.7439 94.1746 23.3271C93.5078 23.7032 92.8107 24.0221 92.0905 24.2806C90.9104 24.7036 89.6681 24.9248 88.4151 24.9352C87.8553 24.9332 87.2969 24.8798 86.7468 24.7754C85.6489 24.5977 84.6 24.1922 83.6668 23.5848C82.4245 22.8128 81.3871 21.7499 80.6434 20.4872ZM84.6114 19.5595C85.5486 20.6096 86.8512 21.2589 88.2508 21.3737C89.2304 21.4053 90.2062 21.2388 91.1203 20.8841C92.1547 20.5171 93.051 19.8386 93.687 18.941C94.1771 18.3549 94.5249 17.6624 94.703 16.9183C94.8812 16.1742 94.8848 15.3987 94.7136 14.6529C94.5722 13.8019 94.2191 13.0006 93.687 12.3233C93.2592 11.7479 92.7143 11.2706 92.0886 10.9231C91.4628 10.5756 90.7705 10.366 90.0577 10.308H89.5906C89.411 10.308 89.2262 10.308 89.0465 10.308C88.4335 10.281 87.8213 10.3756 87.2447 10.5864L87.1215 10.6276C86.1236 10.9964 85.2154 11.5744 84.4574 12.3233C84.4033 12.374 84.3535 12.4292 84.3085 12.4882C83.8697 13.0424 83.5404 13.6756 83.3383 14.354C83.0237 15.4116 83.0363 16.5403 83.3742 17.5907C83.6346 18.3392 84.0571 19.0205 84.6114 19.5853V19.5595ZM139.501 3.69543L139.455 3.82944C139.347 4.13353 139.25 4.44792 139.152 4.75716C139.055 5.0664 138.819 5.73127 138.767 5.8292C138.727 5.90211 138.693 5.97792 138.665 6.05598C138.5 6.54045 138.331 7.06101 138.12 7.74134C137.966 8.22582 137.812 8.71545 137.664 9.20508C137.361 10.1843 135.687 15.5239 135.502 16.1218C135.431 16.3434 135.364 16.5599 135.297 16.7815C135.23 17.0031 135.174 17.1732 135.102 17.3897L135.035 17.601L134.727 17.6268L131.786 17.6731L131.658 17.4464C131.603 17.3467 131.555 17.2434 131.514 17.1371C131.273 16.3382 130.646 14.7869 130.595 14.6271C130.544 14.4673 129.568 11.4316 129.363 10.9471C129.245 10.6276 129.137 10.308 129.029 9.9988L128.86 9.51432C128.537 10.7152 128.208 12.0037 127.89 13.251C127.536 14.658 127.161 16.1063 126.796 17.4464V17.5288L126.74 17.5907C126.69 17.6363 126.637 17.6777 126.581 17.7144L126.504 17.7608L123.188 17.8123L123.09 17.6835C123.009 17.5625 122.945 17.4307 122.9 17.2917C122.793 16.998 122.674 16.699 122.562 16.4053C122.351 15.8898 122.141 15.3384 121.961 14.7817C121.822 14.3385 121.643 13.9004 121.448 13.4726C121.253 13.0448 121.114 12.6583 120.975 12.2356C120.724 11.4883 120.431 10.7358 120.149 10.0091C119.928 9.44217 119.697 8.85976 119.492 8.27221C119.235 7.5558 119.014 6.97339 118.794 6.44253C118.66 6.12298 118.542 5.80343 118.429 5.48903C118.373 5.33441 116.92 1.48951 116.817 1.16996C116.715 0.850414 116.412 0.432938 116.627 0.386552L120.385 0.304087C120.46 0.317487 120.534 0.336437 120.606 0.360782L120.744 0.402014L120.806 0.541172C121.099 1.18589 121.346 1.85072 121.545 2.53062C121.668 2.96356 121.843 3.3965 122.007 3.81913L122.094 4.04591C122.685 5.54573 123.27 7.74134 123.978 9.85964C124.173 10.4524 124.384 11.0451 124.594 11.6532C124.81 10.7152 126.617 3.25219 126.689 3.00995C126.897 2.33258 127.068 1.64436 127.202 0.94834C127.217 0.869038 127.239 0.79136 127.269 0.716409L127.3 0.597867C127.324 0.503261 127.366 0.414089 127.423 0.335011L127.515 0.206161L129.717 0.149467L129.81 0.226777C129.954 0.351469 130.06 0.513838 130.118 0.695793L130.292 1.2112C130.436 1.64413 132.833 9.57102 133.1 10.3699L133.331 11.0605L133.367 10.9471C133.444 10.6791 133.521 10.4317 133.603 10.1431C133.773 9.58648 133.947 9.02985 134.116 8.47321L134.296 7.88565C134.496 7.24655 134.691 6.4116 134.892 5.7725C134.963 5.55088 135.241 4.09229 135.348 3.7109C135.431 3.43773 135.508 3.15426 135.579 2.8811C135.692 2.45847 135.81 2.02553 135.949 1.6029C136.088 1.18027 136.185 0.793719 136.293 0.412322C136.32 0.322094 136.362 0.236839 136.416 0.159775L136.509 0.0360782L140.548 0C140.548 0 139.594 3.45319 139.501 3.69543ZM169.752 25.4454L169.531 25.3732L168.822 25.131L168.381 24.9815L166.733 24.4249L164.264 23.5951L162.637 23.0797L161.364 22.6777L159.993 22.2345C159.398 22.0438 158.787 21.8479 158.186 21.6469L157.74 21.4974L157.606 21.451L156.862 21.2036L157.591 18.941C157.668 18.7143 157.74 18.4875 157.812 18.2659C157.95 17.8432 158.089 17.4206 158.233 16.998L159.023 14.6013L159.85 12.0965C160.086 11.3852 160.317 10.6688 160.553 9.95757C160.789 9.24632 161.066 8.47321 161.287 7.73103C161.497 7.08678 161.713 6.43737 161.923 5.80858L162.339 4.54069L162.76 4.67985C162.878 4.68904 162.994 4.71687 163.104 4.76232L163.171 4.78809L165.111 5.43234L166.584 5.91682L174.017 8.38044L174.849 8.6536L175.362 8.85461L175.27 9.14324C175.146 9.59889 174.998 10.0479 174.828 10.4884L174.259 12.2253L173.124 11.8543L172.139 11.5347L169.911 10.7925L168.258 10.241L165.881 9.45248C165.66 9.37517 165.424 9.29786 165.183 9.23085C165.086 9.19777 164.986 9.17194 164.885 9.15354C164.854 9.22055 163.9 11.9883 163.859 12.215C164.187 12.349 164.618 12.4882 164.952 12.5964L165.342 12.7253C165.799 12.8851 166.266 13.0345 166.718 13.184L167.01 13.2819L167.863 13.5551L168.751 13.8437L169.921 14.2303L170.876 14.5447C170.876 14.5447 170.419 16.1939 170.249 16.5444C170.249 16.6063 170.208 16.6784 170.183 16.7454L170.157 16.8073C170.11 16.9416 170.053 17.0725 169.988 17.199L169.772 17.7144L168.745 17.3691L168.094 17.1577L166.03 16.4929L162.878 15.4621L162.775 15.4311C162.775 15.4878 162.734 15.5291 162.719 15.5755C162.421 16.4723 161.97 17.8278 161.692 18.7143L161.62 18.9256C161.62 18.9926 161.579 19.0493 161.564 19.106C161.559 19.1574 161.559 19.2091 161.564 19.2606C161.612 19.289 161.664 19.3115 161.718 19.3276C162.96 19.7502 164.007 20.1007 165.065 20.446C165.219 20.4975 169.592 21.8943 169.834 21.9355C169.996 21.9679 170.156 22.0127 170.311 22.0695H170.337C170.392 22.09 170.445 22.1159 170.496 22.1468L170.978 22.3066L170.768 22.9457C170.77 23.0449 170.758 23.1438 170.732 23.2395C170.66 23.389 169.757 25.4454 169.752 25.4454ZM198.621 41.861V42.4846L194.473 39.5726L194.443 39.454C194.44 39.4266 194.44 39.399 194.443 39.3716C194.309 38.6706 194.17 37.9748 194.037 37.31L193.77 36.0782L193.631 35.3617C193.483 34.6093 193.406 33.8877 193.272 33.1146C193.2 32.7177 193.128 32.5992 192.974 32.4858C192.82 32.3724 192.297 32.0168 191.902 31.7436L191.388 31.3674C191.374 31.3918 191.357 31.4144 191.337 31.4344L190.937 32.0013L190.546 32.5476C190.033 33.2228 189.52 33.9392 188.873 34.8051C188.816 34.8795 188.752 34.9485 188.683 35.0113L188.632 35.0628L188.55 35.1453H188.426H188.226L185.429 33.1816L186.281 32.1147L187.636 30.2026L188.498 28.9862C188.683 28.7234 188.904 28.409 189.119 28.0894C189.335 27.7699 189.54 27.5276 189.751 27.2596L190.167 26.7442C190.68 26.033 191.193 25.3011 191.706 24.5898L192.625 23.3013C192.841 23.0024 193.072 22.7086 193.293 22.4251L193.621 21.9974L193.652 21.9561C193.705 21.8903 193.755 21.8214 193.801 21.75C194.063 21.3211 194.353 20.9097 194.668 20.5182C194.965 20.1471 195.241 19.7599 195.495 19.3585L195.659 19.0853L195.936 19.24L196.131 19.343C196.238 19.3984 196.341 19.4604 196.439 19.5286L198.236 20.7913L203.508 24.4971C204.438 25.2141 205.176 26.1531 205.654 27.2287C206.247 28.5023 206.383 29.9427 206.039 31.3055C205.725 32.5515 205.047 33.675 204.093 34.5319C203.423 35.1217 202.63 35.5547 201.773 35.7998C200.74 36.1229 199.641 36.1691 198.585 35.9338C198.084 35.8323 197.6 35.6587 197.148 35.4184C197.204 35.7122 197.281 36.006 197.317 36.1452C197.317 36.2018 197.358 36.2689 197.379 36.3359C197.434 36.4771 197.474 36.624 197.497 36.7739C197.551 37.1566 197.63 37.5353 197.733 37.9078C197.764 38.0264 197.789 38.1501 197.82 38.2738C198.051 39.2427 198.272 40.2323 198.488 41.1858L198.58 41.6033C198.578 41.6152 198.578 41.6274 198.58 41.6393C198.601 41.7116 198.615 41.7859 198.621 41.861ZM198.826 32.4446C199.575 32.6038 200.357 32.4672 201.008 32.0632C201.451 31.8537 201.823 31.5163 202.074 31.094C202.325 30.6717 202.446 30.1836 202.42 29.6923C202.38 28.9915 202.086 28.3296 201.593 27.8317C201.322 27.5482 201.027 27.2895 200.71 27.0586C199.483 26.167 198.231 25.2753 197.019 24.4094L196.686 24.1775C196.657 24.1563 196.626 24.1389 196.593 24.126C196.229 24.5486 195.911 25.0073 195.598 25.4506C195.284 25.8938 195.064 26.2855 194.715 26.6721C194.366 27.0586 193.914 27.7544 193.554 28.2853C193.442 28.4605 193.329 28.6306 193.216 28.8007C193.444 28.9746 193.682 29.1346 193.929 29.28C194.16 29.4243 194.396 29.5738 194.622 29.7439C195.367 30.2902 196.244 30.9344 197.148 31.5529C197.487 31.7797 197.856 31.9807 198.215 32.1817L198.59 32.3827C198.653 32.4121 198.718 32.4346 198.785 32.4497L198.826 32.4446ZM223.332 64.2037C222.223 64.6443 220.988 64.6443 219.878 64.2037C219.503 64.0542 219.133 63.9047 218.795 63.7501C218.47 63.5914 218.164 63.3942 217.886 63.1625L217.712 63.0285C217.034 62.5138 216.428 61.9106 215.91 61.2349C215.413 60.5929 214.965 59.9141 214.57 59.2043C214.084 58.3428 213.722 57.416 213.497 56.452C213.473 56.342 213.442 56.2338 213.405 56.1273C213.364 55.9985 213.323 55.8593 213.292 55.7201C213.095 54.7281 213.021 53.7154 213.071 52.705C213.067 52.6398 213.067 52.5744 213.071 52.5092L213.117 51.9319H213.631C213.642 51.9293 213.655 51.9293 213.667 51.9319H214.062C214.818 51.9693 215.571 52.0588 216.315 52.1999L216.551 52.2515V52.4886C216.551 52.5607 216.551 52.6226 216.577 52.6793C216.587 52.7941 216.587 52.9097 216.577 53.0246C216.492 54.2323 216.64 55.4451 217.013 56.5963C217.527 58.3435 218.902 60.5598 220.566 60.869C220.9 60.9563 221.252 60.9511 221.583 60.854C221.915 60.7569 222.214 60.5715 222.45 60.3175C222.639 60.1138 222.773 59.8643 222.837 59.5933C222.902 59.3223 222.896 59.0391 222.819 58.7713C222.694 58.318 222.5 57.8869 222.244 57.4931C221.669 56.5242 220.992 55.4315 220.191 54.0863C219.728 53.368 219.373 52.5847 219.139 51.7618C218.911 50.9059 218.978 49.9977 219.329 49.1848C219.592 48.6148 219.948 48.0923 220.381 47.6386L220.463 47.5407C221.114 46.8703 221.939 46.397 222.845 46.1749C223.354 46.0314 223.887 45.9946 224.41 46.0666C225.258 46.1178 226.083 46.3666 226.818 46.7934L227.162 47.015C227.531 47.2418 227.906 47.484 228.266 47.7469C228.77 48.1605 229.22 48.6368 229.605 49.1642C229.682 49.2673 229.759 49.3652 229.841 49.4632C230.904 50.8255 231.646 52.4111 232.013 54.1018C232.105 54.5189 232.161 54.943 232.182 55.3697C232.182 55.4624 232.182 55.5552 232.182 55.648C232.182 55.9108 232.367 56.3438 232.08 56.3489C231.361 56.3798 229.667 56.6839 229 56.5551C228.779 56.5139 228.794 56.1995 228.728 55.8644L228.681 55.6222C228.615 55.2666 228.481 54.8182 228.399 54.4574C228.163 53.2323 227.634 52.0828 226.859 51.1073C226.797 51.0351 226.741 50.963 226.679 50.896L226.464 50.6331C225.966 50.1299 225.305 49.8242 224.6 49.7724C224.187 49.7148 223.767 49.7849 223.394 49.9734C223.202 50.0743 223.046 50.2313 222.945 50.4237C222.844 50.6161 222.804 50.8347 222.829 51.0506C222.948 51.7285 223.208 52.3733 223.594 52.9421C223.779 53.2204 223.902 53.5606 224.108 53.8338C224.421 54.2822 224.744 54.7409 225.042 55.2099C225.402 55.7814 225.726 56.3753 226.012 56.988C226.544 57.9851 226.759 59.1219 226.628 60.2454C226.562 60.6619 226.436 61.0666 226.253 61.4463C225.976 62.0791 225.574 62.6494 225.072 63.1231C224.57 63.5968 223.979 63.9643 223.332 64.2037ZM228.502 118.512C228.519 119.081 228.446 119.65 228.286 120.197C228.121 120.731 227.888 121.242 227.593 121.717C227.301 122.173 226.946 122.586 226.541 122.944C226.331 123.136 226.104 123.308 225.863 123.459C225.264 123.867 224.591 124.151 223.882 124.294C222.594 124.537 221.266 124.449 220.022 124.037C219.684 123.915 219.357 123.763 219.046 123.583C218.425 123.245 217.88 122.781 217.445 122.222C216.856 121.492 216.455 120.629 216.274 119.707C216.149 119.132 216.127 118.538 216.208 117.955C216.25 117.627 216.31 117.302 216.387 116.981C216.648 116.11 217.111 115.313 217.737 114.656C218.025 114.348 218.345 114.071 218.692 113.832C219.302 113.415 219.99 113.126 220.715 112.981C221.052 112.897 221.395 112.839 221.741 112.806C222.038 112.78 222.337 112.78 222.634 112.806C223.355 112.843 224.065 112.995 224.739 113.254C224.944 113.342 225.16 113.425 225.36 113.528C226.493 114.099 227.398 115.041 227.927 116.197C228.055 116.469 228.169 116.748 228.266 117.032C228.303 117.194 228.332 117.357 228.353 117.522C228.436 117.846 228.486 118.177 228.502 118.512ZM222.547 122.393C223.284 122.437 224.016 122.244 224.636 121.841C225.219 121.499 225.697 121.003 226.017 120.407C226.337 119.81 226.488 119.137 226.453 118.46C226.417 117.784 226.197 117.13 225.816 116.571C225.435 116.012 224.908 115.569 224.292 115.29L223.666 115.038C223.263 114.875 222.833 114.793 222.398 114.796C221.631 114.793 220.872 114.958 220.176 115.28C220.119 115.304 220.064 115.332 220.011 115.362C219.591 115.636 219.226 115.985 218.933 116.393C218.477 117.016 218.223 117.765 218.204 118.537C218.199 119.097 218.32 119.65 218.559 120.156C218.749 120.591 219.024 120.984 219.367 121.312C219.71 121.64 220.113 121.897 220.555 122.068C221.191 122.309 221.868 122.419 222.547 122.393ZM243.019 120.934H242.675C242.869 121.192 243.096 121.423 243.352 121.619C243.464 121.697 243.57 121.781 243.67 121.872C243.91 122.123 244.166 122.359 244.435 122.578C244.995 123.094 245.554 123.583 246.109 124.088C246.14 124.113 246.169 124.141 246.196 124.171H243.316L243.28 124.14C242.767 123.624 242.218 123.109 241.684 122.594C241.15 122.078 240.703 121.661 240.226 121.181C240.159 121.098 240.076 121.029 239.981 120.98C239.887 120.93 239.783 120.9 239.677 120.893C239.405 120.893 238.368 120.893 238.224 120.893C238.219 120.98 238.219 121.068 238.224 121.156C238.224 121.46 238.224 121.764 238.224 122.063C238.224 122.681 238.193 123.3 238.173 123.918C238.169 123.986 238.158 124.053 238.142 124.119H238.106H236.273H236.222C236.168 123.978 236.153 123.825 236.176 123.676C236.176 122.758 236.176 121.836 236.176 120.919V120.243C236.176 119.867 236.212 119.491 236.227 119.115C236.258 118.182 236.227 117.244 236.263 116.311C236.263 115.95 236.299 115.594 236.314 115.234C236.32 115.158 236.32 115.082 236.314 115.007C236.263 114.373 236.376 113.744 236.314 113.069C236.435 113.05 236.557 113.038 236.679 113.033H242.428C243.167 113.07 243.885 113.285 244.523 113.662C245.287 114.098 245.875 114.789 246.186 115.615C246.474 116.366 246.529 117.187 246.345 117.97C246.185 118.57 245.892 119.125 245.486 119.593C245.08 120.061 244.573 120.43 244.004 120.671C243.691 120.809 243.358 120.897 243.019 120.934ZM242.988 119.032C243.499 118.836 243.915 118.448 244.148 117.95C244.329 117.629 244.41 117.262 244.382 116.895C244.354 116.527 244.217 116.177 243.989 115.888C243.669 115.479 243.21 115.204 242.7 115.115C242.437 115.059 242.169 115.027 241.899 115.022C240.801 115.022 239.708 115.022 238.609 114.991C238.518 114.999 238.427 115.013 238.337 115.033C238.239 115.801 238.337 116.553 238.255 117.3C238.209 117.867 238.255 118.537 238.255 119.115C238.327 119.156 238.352 119.182 238.383 119.182C238.784 119.182 239.189 119.151 239.59 119.156C240.283 119.156 240.975 119.187 241.643 119.156C242.018 119.156 242.392 119.099 242.762 119.058C242.837 119.068 242.913 119.068 242.988 119.058V119.032ZM207.512 141.524C207.512 141.854 207.512 142.266 207.512 142.581C207.512 143.318 207.512 144.22 207.512 144.957C207.512 145.364 207.46 145.766 207.46 146.173C207.46 147.457 207.46 148.75 207.43 150.018C207.432 150.395 207.397 150.771 207.327 151.142C207.261 151.52 207.1 151.874 206.86 152.173C206.596 152.491 206.235 152.714 205.833 152.806C205.046 153.026 204.208 152.97 203.457 152.647C203.013 152.453 202.616 152.166 202.291 151.807C202.246 151.767 202.216 151.713 202.206 151.654C202.196 151.595 202.206 151.534 202.235 151.482C202.253 151.44 202.275 151.4 202.302 151.363C202.645 150.987 202.728 150.57 203.118 150.204C203.226 150.317 203.39 150.43 203.487 150.544C203.785 150.92 204.201 151.182 204.668 151.286C205.535 151.286 205.458 150.477 205.458 150.255C205.458 149.905 205.458 149.683 205.458 149.338C205.505 148.307 205.458 147.23 205.458 146.178C205.458 145.849 205.484 145.519 205.458 145.189C205.458 144.756 205.525 144.323 205.458 143.89C205.508 143.219 205.522 142.547 205.5 141.875C205.5 141.844 205.5 141.524 205.5 141.55C205.5 141.576 207.512 141.524 207.512 141.524ZM225.761 142.596C225.697 143.259 225.675 143.925 225.694 144.591C225.694 145.029 225.694 145.467 225.694 145.905C225.694 146.421 225.627 146.936 225.637 147.477C225.631 148.051 225.593 148.624 225.524 149.193C225.495 149.586 225.377 149.967 225.18 150.307C224.669 151.257 223.858 152.011 222.876 152.451C222.443 152.622 221.994 152.748 221.536 152.827C220.81 152.965 220.063 152.947 219.344 152.776C218.978 152.69 218.619 152.577 218.271 152.435C217.486 152.119 216.815 151.571 216.346 150.863C216.117 150.474 215.908 150.073 215.72 149.662C215.679 149.333 215.607 149.008 215.597 148.678C215.561 147.457 215.597 146.251 215.597 145.029V143.627C215.597 143.04 215.597 142.323 215.597 141.736C215.592 141.676 215.592 141.615 215.597 141.555C215.597 141.555 215.597 141.555 215.597 141.524H217.748C217.787 141.595 217.802 141.676 217.789 141.756C217.706 142.885 217.763 144.143 217.717 145.271C217.717 145.89 217.717 146.508 217.717 147.132C217.717 147.647 217.717 148.163 217.717 148.678C217.726 149.112 217.87 149.533 218.128 149.881C218.387 150.23 218.747 150.488 219.159 150.621L219.329 150.673C219.896 150.82 220.486 150.861 221.069 150.791C221.473 150.751 221.865 150.632 222.224 150.441C222.681 150.17 223.033 149.75 223.22 149.25C223.302 148.977 223.337 148.691 223.322 148.405C223.322 148.147 223.322 147.89 223.322 147.637C223.353 146.673 223.394 145.704 223.394 144.74C223.394 144.06 223.394 143.194 223.394 142.519C223.42 142.234 223.42 141.948 223.394 141.663C223.381 141.623 223.381 141.58 223.394 141.54H225.576C225.593 141.569 225.607 141.6 225.617 141.633C225.65 141.733 225.671 141.837 225.678 141.942C225.726 142.157 225.753 142.376 225.761 142.596ZM234.241 149.415C234.335 149.468 234.426 149.526 234.513 149.59C235.251 150.203 236.121 150.635 237.054 150.853C237.301 150.925 237.556 150.963 237.813 150.966C238.327 150.966 238.871 150.997 239.4 150.966C239.763 150.958 240.117 150.853 240.426 150.662C240.626 150.529 240.787 150.345 240.892 150.128C240.997 149.911 241.041 149.67 241.021 149.429C241.001 149.189 240.918 148.959 240.779 148.762C240.64 148.566 240.45 148.41 240.231 148.312C239.923 148.183 239.598 148.102 239.266 148.07C238.409 147.962 237.557 147.859 236.699 147.761C236.156 147.714 235.623 147.586 235.118 147.379C234.631 147.172 234.225 146.81 233.963 146.348C233.777 145.969 233.653 145.562 233.594 145.142C233.52 144.569 233.61 143.986 233.856 143.462C233.97 143.168 234.145 142.901 234.369 142.679C234.724 142.282 235.165 141.972 235.657 141.772C236.017 141.648 236.371 141.509 236.735 141.411C237.225 141.314 237.725 141.276 238.224 141.298C239.332 141.301 240.426 141.551 241.427 142.029C241.724 142.179 242.009 142.352 242.279 142.545C242.418 142.632 242.433 142.756 242.331 142.9C242.053 143.277 241.766 143.653 241.479 144.019C241.366 144.158 241.289 144.153 241.119 144.065C240.847 143.931 240.606 143.792 240.308 143.663C239.529 143.318 238.679 143.163 237.829 143.21H237.418C236.916 143.216 236.434 143.411 236.068 143.756C235.835 143.978 235.674 144.265 235.606 144.581C235.57 144.769 235.594 144.964 235.673 145.138C235.752 145.312 235.883 145.458 236.048 145.555C236.474 145.785 236.945 145.922 237.428 145.957C238.019 145.998 238.609 146.013 239.194 146.07C239.629 146.116 240.061 146.188 240.488 146.287C241.193 146.436 241.837 146.796 242.336 147.317C242.519 147.496 242.676 147.699 242.803 147.92C243 148.298 243.12 148.712 243.156 149.136C243.191 149.561 243.141 149.989 243.008 150.394C242.795 151.102 242.322 151.701 241.684 152.069C241.463 152.203 241.237 152.327 241.011 152.446C240.764 152.561 240.504 152.646 240.236 152.698C239.187 152.944 238.098 152.968 237.038 152.77C236.41 152.674 235.799 152.49 235.221 152.224C235.072 152.152 234.908 152.105 234.759 152.033C234.178 151.739 233.635 151.373 233.142 150.946C233.093 150.91 233.053 150.865 233.024 150.812C233.013 150.785 233.007 150.756 233.007 150.727C233.007 150.698 233.013 150.669 233.024 150.642C233.4 150.204 233.807 149.795 234.241 149.415ZM260.395 142.199C260.361 142.423 260.351 142.649 260.364 142.875C260.358 143.06 260.336 143.245 260.297 143.426C259.496 143.426 256.837 143.395 256.119 143.426C256.091 143.508 256.072 143.593 256.062 143.679C256.062 144.076 256.062 144.467 256.062 144.859C256.001 146.622 255.98 148.508 255.985 150.276C255.985 151.028 255.985 151.781 255.949 152.533C255.959 152.576 255.959 152.62 255.949 152.662H253.685C253.685 152.41 253.685 152.188 253.685 151.971C253.685 151.173 253.685 150.245 253.711 149.446C253.737 148.647 253.757 147.977 253.757 147.24C253.757 146.503 253.757 145.761 253.788 145.024C253.788 144.617 253.788 144.21 253.788 143.797C253.788 143.684 253.788 143.565 253.757 143.442C253.697 143.415 253.633 143.398 253.567 143.39C253.121 143.39 250.559 143.39 250.195 143.39C249.83 143.39 249.717 143.328 249.733 142.921C249.756 142.567 249.756 142.213 249.733 141.859C249.706 141.734 249.72 141.604 249.774 141.488H260.256C260.392 141.698 260.442 141.953 260.395 142.199ZM194.689 176.479C194.689 176.608 194.689 176.695 194.689 176.783C194.689 177.443 194.689 178.03 194.689 178.69V178.87C194.689 179.113 194.781 179.185 195.033 179.185H197.379C197.558 179.185 197.738 179.154 197.918 179.143C197.991 179.133 198.065 179.133 198.138 179.143C198.306 179.191 198.484 179.191 198.652 179.143C198.696 179.133 198.741 179.133 198.785 179.143C199.299 179.185 199.771 179.143 200.258 179.143C200.429 179.166 200.601 179.166 200.772 179.143C200.874 179.143 200.982 179.143 201.09 179.143C201.116 179.141 201.143 179.145 201.168 179.153C201.193 179.161 201.216 179.174 201.236 179.191C201.256 179.208 201.273 179.23 201.285 179.253C201.297 179.277 201.304 179.303 201.306 179.329C201.306 179.458 201.352 179.592 201.367 179.726C201.38 179.83 201.38 179.936 201.367 180.04C201.367 180.426 201.341 180.812 201.29 181.195H200.484C199.519 181.195 198.559 181.195 197.594 181.195C196.922 181.195 196.244 181.195 195.567 181.195H193.036C192.661 181.195 192.63 181.128 192.636 180.762V178.499C192.636 177.334 192.636 176.252 192.636 175.087V172.041C192.636 171.397 192.636 170.748 192.636 170.124C192.749 169.99 192.877 170.021 192.99 170.021H201.157C201.326 170.021 201.336 170.072 201.367 170.232C201.378 170.292 201.378 170.353 201.367 170.413C201.312 170.828 201.283 171.246 201.28 171.665C201.28 171.851 201.177 171.928 200.982 171.938C200.669 171.938 200.356 171.938 200.038 171.938H195.669C195.505 171.938 195.336 171.938 195.156 171.938C194.771 171.938 194.745 171.974 194.735 172.345C194.735 172.515 194.735 172.68 194.735 172.861C194.735 173.175 194.735 173.495 194.699 173.809C194.695 174.025 194.721 174.24 194.776 174.448C195.183 174.479 195.59 174.489 195.998 174.479C196.388 174.479 196.778 174.479 197.168 174.479H198.385H199.576C199.607 174.564 199.631 174.652 199.648 174.742C199.686 175.053 199.696 175.367 199.678 175.68C199.678 175.788 199.678 175.891 199.678 175.994C199.679 176.098 199.668 176.202 199.648 176.304C199.622 176.422 199.55 176.463 199.412 176.469H194.992L194.689 176.479ZM219.406 170.155C219.241 170.526 219.062 170.892 218.892 171.268C218.671 171.825 218.466 172.392 218.251 172.954C218.211 173.083 218.165 173.21 218.112 173.335C217.773 174.041 217.542 174.788 217.26 175.52C217.157 175.788 217.049 176.036 216.942 176.319C216.654 177.077 216.367 177.84 216.074 178.597L215.258 180.705C215.241 180.747 215.222 180.789 215.201 180.829C215.047 181.174 215.088 181.179 214.729 181.179H213.271C213.187 181.183 213.105 181.159 213.036 181.11C212.967 181.062 212.916 180.992 212.891 180.911C212.891 180.87 212.85 180.834 212.835 180.793C212.322 179.458 211.675 178.175 211.141 176.845C210.843 176.108 210.504 175.386 210.186 174.649C209.868 173.912 209.503 173.077 209.16 172.289C209.042 172.01 208.918 171.737 208.795 171.459C208.595 171.021 208.349 170.469 208.148 170.021H210.566C210.617 170.165 210.735 170.418 210.792 170.536C211.172 171.454 211.547 172.376 211.926 173.294C212.265 174.113 212.604 174.933 212.953 175.752C213.133 176.18 213.328 176.603 213.513 177.03C213.62 177.283 213.723 177.546 213.831 177.778C213.856 177.829 213.908 177.86 213.959 177.922C214.003 177.872 214.043 177.819 214.077 177.762C214.247 177.329 214.442 176.901 214.591 176.458C214.77 175.881 214.986 175.324 215.201 174.763C215.448 174.118 215.715 173.474 215.956 172.83C216.264 172.026 216.562 171.222 216.865 170.418C216.899 170.266 216.951 170.119 217.019 169.98H219.406C219.42 170.039 219.411 170.102 219.38 170.155H219.406ZM228.676 176.479C228.676 176.608 228.651 176.695 228.651 176.783C228.651 177.443 228.651 178.03 228.651 178.69C228.651 178.752 228.651 178.814 228.651 178.87C228.651 179.113 228.743 179.185 228.994 179.185H231.34C231.52 179.185 231.695 179.154 231.879 179.143C231.953 179.133 232.027 179.133 232.1 179.143C232.268 179.192 232.446 179.192 232.613 179.143C232.657 179.133 232.703 179.133 232.747 179.143C233.26 179.185 233.732 179.143 234.225 179.143C234.396 179.166 234.568 179.166 234.739 179.143C234.841 179.143 234.949 179.143 235.052 179.143C235.078 179.141 235.105 179.143 235.131 179.151C235.157 179.159 235.181 179.172 235.201 179.189C235.222 179.207 235.239 179.228 235.251 179.252C235.263 179.276 235.271 179.302 235.272 179.329C235.299 179.46 235.318 179.593 235.329 179.726C235.344 179.83 235.344 179.936 235.329 180.04C235.333 180.426 235.309 180.812 235.257 181.195H234.446C233.486 181.195 232.526 181.195 231.561 181.195C230.884 181.195 230.211 181.195 229.533 181.195H226.998C226.623 181.195 226.597 181.128 226.602 180.762V178.499C226.602 177.334 226.602 176.252 226.602 175.087C226.602 174.056 226.602 173.067 226.602 172.052C226.602 171.407 226.602 170.758 226.602 170.134C226.715 170 226.844 170.031 226.957 170.031H235.124C235.293 170.031 235.303 170.083 235.334 170.242C235.345 170.302 235.345 170.363 235.334 170.423C235.252 170.835 235.288 171.258 235.247 171.675C235.247 171.861 235.149 171.938 234.954 171.948C234.641 171.948 234.323 171.948 234.01 171.948H229.641C229.472 171.948 229.308 171.948 229.128 171.948C228.743 171.948 228.717 171.985 228.707 172.356C228.707 172.526 228.707 172.691 228.707 172.871C228.707 173.185 228.707 173.505 228.671 173.819C228.667 174.035 228.692 174.25 228.748 174.458C229.153 174.489 229.559 174.5 229.965 174.489C230.355 174.489 230.75 174.489 231.14 174.489H232.357H233.548C233.578 174.575 233.6 174.663 233.614 174.752C233.658 175.063 233.668 175.377 233.645 175.69C233.645 175.799 233.645 175.902 233.645 176.005C233.643 176.108 233.633 176.212 233.614 176.314C233.614 176.432 233.517 176.474 233.373 176.479H228.943H228.676ZM249.774 177.922H249.43C249.625 178.177 249.853 178.406 250.108 178.602C250.218 178.683 250.324 178.769 250.426 178.86C250.667 179.107 250.92 179.341 251.186 179.561C251.75 180.076 252.305 180.566 252.864 181.071C252.894 181.098 252.922 181.127 252.946 181.159H250.072L250.036 181.123L248.439 179.576C247.952 179.107 247.459 178.644 246.976 178.169C246.912 178.084 246.83 178.014 246.736 177.963C246.642 177.912 246.539 177.883 246.432 177.876C246.16 177.876 245.123 177.876 244.979 177.876C244.972 177.963 244.972 178.051 244.979 178.138C244.979 178.437 244.979 178.741 244.979 179.04C244.979 179.659 244.949 180.277 244.928 180.896C244.924 180.964 244.914 181.031 244.897 181.097L244.861 181.128H243.029H242.977C242.924 180.988 242.908 180.837 242.931 180.69C242.931 179.767 242.931 178.845 242.931 177.927V177.2C242.931 176.824 242.967 176.448 242.983 176.077C243.013 175.139 242.983 174.206 243.019 173.268C243.019 172.907 243.054 172.551 243.07 172.191C243.07 172.119 243.07 172.041 243.07 171.964C243.019 171.33 243.126 170.706 243.07 170.026C243.234 170.026 243.337 169.99 243.434 169.99H249.184C249.923 170.026 250.642 170.244 251.278 170.624C252.043 171.057 252.632 171.747 252.941 172.572C253.229 173.323 253.284 174.144 253.1 174.928C252.963 175.471 252.709 175.977 252.356 176.412C251.937 176.951 251.385 177.371 250.754 177.628C250.437 177.78 250.097 177.879 249.748 177.922H249.774ZM249.738 176.02C250.253 175.827 250.672 175.438 250.903 174.938C251.084 174.617 251.166 174.25 251.137 173.883C251.109 173.515 250.972 173.165 250.744 172.876C250.423 172.469 249.965 172.194 249.456 172.103C249.192 172.047 248.924 172.015 248.655 172.01L245.364 171.979C245.273 171.989 245.182 172.004 245.092 172.026C244.995 172.789 245.092 173.541 245.01 174.288C244.964 174.855 245.01 175.525 245.01 176.103C245.082 176.144 245.108 176.17 245.133 176.17C245.539 176.201 245.944 176.139 246.345 176.17C247.038 176.17 247.731 176.201 248.398 176.17C248.773 176.17 249.143 176.113 249.517 176.077C249.584 176.064 249.649 176.045 249.712 176.02H249.738ZM270.882 170.397C270.62 170.804 270.369 171.191 270.066 171.588C269.989 171.696 269.907 171.804 269.835 171.923C269.496 172.49 269.131 173.041 268.808 173.613C268.295 174.525 267.71 175.412 267.155 176.309L266.596 177.185C266.512 177.312 266.469 177.461 266.472 177.613C266.472 178.453 266.395 179.236 266.442 180.082C266.46 180.445 266.443 180.809 266.39 181.169H266.354H264.255C264.255 181.061 264.229 180.968 264.224 180.875C264.224 180.561 264.224 180.246 264.224 179.932C264.224 179.767 264.26 179.602 264.26 179.417C264.26 179.009 264.26 178.664 264.26 178.257C264.252 178.182 264.252 178.106 264.26 178.03C264.281 177.873 264.27 177.712 264.227 177.559C264.185 177.406 264.112 177.263 264.014 177.139C262.987 175.606 261.952 174.068 260.908 172.526C260.395 171.773 259.917 171.016 259.424 170.258C259.383 170.185 259.347 170.109 259.317 170.031L259.342 169.99H261.745L261.96 170.315C262.674 171.412 263.392 172.51 264.101 173.613C264.416 174.126 264.759 174.622 265.127 175.098C265.174 175.154 265.225 175.206 265.281 175.263C265.333 175.221 265.374 175.201 265.394 175.165C265.605 174.819 265.81 174.469 266.021 174.134C266.606 173.139 267.268 172.186 267.894 171.211C268.038 170.985 268.177 170.748 268.32 170.521C268.392 170.402 268.464 170.289 268.541 170.175C268.586 170.105 268.648 170.047 268.721 170.005H271.051C271.036 170.191 270.918 170.299 270.856 170.397H270.882ZM209.663 209.671C209.663 209.516 209.663 209.295 209.663 209.155C209.663 208.125 209.663 207.145 209.709 206.145C209.709 205.563 209.765 204.981 209.765 204.393C209.765 203.403 209.765 202.419 209.765 201.429C209.765 200.914 209.796 200.445 209.806 199.95C209.806 199.61 209.806 199.265 209.832 198.919C209.826 198.808 209.826 198.696 209.832 198.584C209.94 198.456 210.068 198.497 210.186 198.497C211.47 198.497 214.601 198.523 214.883 198.497C215.586 198.489 216.283 198.618 216.936 198.878C217.062 198.928 217.183 198.99 217.296 199.064C217.861 199.369 218.368 199.772 218.795 200.254C219.331 200.86 219.732 201.573 219.97 202.347C220.14 202.89 220.225 203.457 220.222 204.027C220.226 204.821 220.051 205.605 219.708 206.321C219.497 206.766 219.243 207.189 218.949 207.583C218.44 208.214 217.805 208.73 217.085 209.099C216.621 209.372 216.105 209.548 215.571 209.614C215.483 209.628 215.393 209.636 215.304 209.64C214.462 209.666 209.77 209.686 209.637 209.671H209.663ZM211.757 207.578C211.879 207.666 212.03 207.701 212.178 207.676C212.871 207.676 213.564 207.676 214.231 207.676C214.546 207.682 214.861 207.655 215.171 207.594C215.961 207.444 216.682 207.041 217.224 206.444C217.614 206.025 217.9 205.518 218.056 204.965C218.193 204.47 218.221 203.951 218.138 203.445C218.063 202.965 217.888 202.507 217.624 202.1C217.488 201.902 217.339 201.714 217.178 201.538C216.864 201.18 216.478 200.894 216.045 200.699C215.612 200.505 215.142 200.406 214.668 200.409C214.262 200.409 213.857 200.409 213.451 200.409L212.014 200.368C211.849 200.368 211.793 200.424 211.788 200.584C211.788 200.857 211.788 201.131 211.788 201.399C211.788 202.471 211.788 203.543 211.742 204.61C211.701 205.45 211.742 206.295 211.695 207.14C211.673 207.287 211.686 207.437 211.731 207.578H211.757ZM231.058 198.559C231.146 198.543 231.235 198.533 231.325 198.528H232.536C232.891 198.528 232.916 198.528 233.05 198.863C233.183 199.198 233.327 199.626 233.481 200.002C233.928 201.089 234.379 202.172 234.826 203.259C235.17 204.11 235.498 204.97 235.852 205.836C236.099 206.434 236.366 207.027 236.602 207.625C236.72 207.903 236.843 208.176 236.956 208.454C237.069 208.733 237.213 209.068 237.336 209.372C237.363 209.462 237.385 209.553 237.403 209.645C237.323 209.663 237.243 209.675 237.161 209.681H235.334C235.308 209.682 235.283 209.673 235.262 209.657C235.241 209.641 235.227 209.619 235.221 209.593C235.012 208.967 234.769 208.353 234.492 207.753C234.44 207.639 234.399 207.52 234.369 207.398C234.353 207.319 234.308 207.249 234.244 207.202C234.179 207.154 234.1 207.132 234.02 207.14C233.507 207.14 232.968 207.14 232.439 207.14C232.033 207.14 231.633 207.109 231.227 207.099H229.826C229.744 207.09 229.662 207.11 229.592 207.155C229.523 207.2 229.472 207.268 229.446 207.346L228.882 208.692C228.779 208.944 228.686 209.207 228.584 209.449C228.561 209.53 228.512 209.6 228.443 209.648C228.375 209.696 228.292 209.719 228.209 209.712C227.696 209.712 226.423 209.712 226.377 209.712C226.33 209.712 227.578 206.764 227.855 206.104C228.178 205.31 228.548 204.558 228.882 203.733C228.948 203.553 229.03 203.378 229.113 203.218C229.415 202.548 229.723 201.878 230.016 201.203C230.309 200.528 230.529 199.955 230.812 199.332L231.058 198.559ZM231.962 201.569C231.904 201.629 231.852 201.694 231.807 201.764C231.7 201.991 231.592 202.223 231.489 202.46L230.463 204.78C230.252 205.264 230.283 205.295 230.807 205.326H233.06H233.286C233.363 205.326 233.43 205.295 233.44 205.192C233.276 204.795 233.106 204.393 232.927 203.986C232.747 203.579 232.634 203.197 232.465 202.811C232.31 202.388 232.133 201.973 231.936 201.569H231.962ZM253.721 198.894C253.465 199.296 253.182 199.687 252.905 200.079C252.828 200.193 252.746 200.301 252.679 200.414C252.335 200.986 251.971 201.533 251.653 202.11C251.139 203.022 250.554 203.909 250 204.805C249.82 205.099 249.625 205.388 249.44 205.676C249.357 205.803 249.314 205.952 249.317 206.104C249.317 206.949 249.24 207.733 249.286 208.573C249.307 208.936 249.29 209.301 249.235 209.66H249.199H247.099C247.099 209.557 247.074 209.465 247.069 209.372C247.069 209.057 247.043 208.738 247.043 208.424C247.043 208.259 247.079 208.094 247.079 207.908C247.079 207.501 247.079 207.156 247.079 206.748C247.071 206.675 247.071 206.6 247.079 206.527C247.1 206.369 247.089 206.209 247.046 206.056C247.004 205.903 246.931 205.759 246.833 205.635C245.806 204.099 244.779 202.553 243.753 200.997C243.239 200.244 242.762 199.486 242.269 198.724C242.229 198.652 242.193 198.578 242.161 198.502C242.169 198.488 242.177 198.474 242.187 198.461H244.589C244.666 198.574 244.738 198.677 244.805 198.785C245.518 199.883 246.237 200.981 246.945 202.084C247.262 202.596 247.604 203.092 247.972 203.568C248.018 203.625 248.075 203.677 248.126 203.733C248.169 203.706 248.209 203.673 248.244 203.635L248.865 202.605C249.456 201.61 250.113 200.656 250.739 199.687C250.888 199.461 251.021 199.224 251.165 198.992C251.237 198.878 251.309 198.765 251.386 198.651C251.43 198.58 251.492 198.521 251.565 198.481H253.896C253.87 198.688 253.757 198.791 253.696 198.894H253.721ZM3.4135 124.176C3.32524 124.046 3.29029 123.887 3.31597 123.733C3.31597 123.021 3.31597 122.336 3.31597 121.63C3.31597 121.073 3.37757 120.522 3.37244 119.97C3.37244 118.975 3.37244 117.981 3.37244 116.986C3.37244 115.991 3.37244 114.924 3.37244 113.863C3.37244 113.713 3.37244 113.564 3.37244 113.414C3.36475 113.339 3.36475 113.263 3.37244 113.187C3.37604 113.15 3.39302 113.114 3.42032 113.088C3.44761 113.061 3.48343 113.045 3.5213 113.043C3.71637 113.043 9.27568 113.043 11.3649 113.043C11.4984 113.043 11.637 113.017 11.7704 113.017C11.842 113.025 11.9126 113.041 11.9809 113.064C11.9809 113.502 11.9809 113.919 11.9552 114.337C11.9552 114.486 11.9552 114.641 11.9552 114.79C11.9567 114.821 11.9518 114.851 11.941 114.88C11.9303 114.908 11.9138 114.934 11.8926 114.956C11.8714 114.977 11.846 114.995 11.8179 115.006C11.7898 115.018 11.7597 115.023 11.7294 115.022H11.4984C10.5231 115.022 9.54261 115.022 8.56729 115.022C8.05397 115.022 7.54064 114.971 7.02732 114.986C6.53171 114.951 6.03372 114.975 5.54381 115.058C5.51817 115.11 5.50085 115.166 5.49247 115.223C5.49247 115.919 5.49247 116.615 5.49247 117.285C5.49247 117.46 5.55921 117.522 5.744 117.532C5.9288 117.543 6.07253 117.532 6.25733 117.532C7.62277 117.532 8.99335 117.532 10.3639 117.532C10.4666 117.532 10.5693 117.532 10.6668 117.532C10.7537 118.167 10.7537 118.81 10.6668 119.444C10.327 119.502 9.97995 119.502 9.64014 119.444H8.61349C8.2901 119.444 7.96157 119.444 7.63304 119.444C7.30451 119.444 6.94518 119.403 6.60639 119.444C6.2676 119.486 5.92367 119.403 5.55407 119.444C5.55407 119.532 5.51301 119.604 5.50787 119.676C5.50787 120.429 5.50787 121.181 5.47194 121.939C5.47194 122.568 5.47194 123.176 5.43601 123.81C5.4298 123.888 5.41952 123.965 5.40521 124.042C5.08193 124.114 4.74904 124.134 4.41962 124.099C4.07056 124.212 3.74203 124.176 3.4135 124.176ZM30.7686 118.506C30.7855 119.076 30.7128 119.645 30.553 120.192C30.3897 120.726 30.1585 121.237 29.8652 121.712C29.5692 122.167 29.2135 122.58 28.8077 122.939C28.5977 123.131 28.3709 123.303 28.1301 123.454C27.5323 123.864 26.8584 124.148 26.1487 124.289C24.8609 124.532 23.5329 124.443 22.2885 124.032C21.9505 123.91 21.6241 123.758 21.3132 123.578C20.6921 123.239 20.147 122.776 19.7116 122.217C19.1252 121.486 18.7237 120.623 18.5412 119.702C18.4154 119.127 18.3945 118.533 18.4796 117.95C18.5174 117.622 18.5757 117.296 18.6541 116.976C18.9209 116.107 19.3888 115.314 20.0196 114.662C20.3073 114.353 20.6274 114.076 20.9744 113.837C21.5848 113.42 22.2727 113.131 22.9969 112.986C23.3342 112.902 23.6774 112.844 24.0235 112.811C24.3207 112.785 24.6195 112.785 24.9167 112.811C25.6374 112.849 26.3477 113 27.0214 113.26C27.2318 113.347 27.4423 113.43 27.6425 113.533C28.775 114.104 29.6801 115.046 30.2091 116.203C30.3378 116.474 30.451 116.753 30.5479 117.038C30.5878 117.199 30.617 117.362 30.6352 117.527C30.7126 117.85 30.7574 118.18 30.7686 118.512V118.506ZM24.8141 122.387C25.5513 122.433 26.2835 122.239 26.9033 121.836C27.486 121.494 27.9636 120.998 28.284 120.402C28.6044 119.805 28.7551 119.132 28.7196 118.455C28.684 117.779 28.4637 117.125 28.0826 116.566C27.7016 116.007 27.1746 115.564 26.5594 115.285L25.9331 115.033C25.5301 114.87 25.0995 114.788 24.6652 114.79C23.898 114.787 23.1394 114.953 22.4425 115.275C22.3874 115.298 22.3342 115.326 22.2834 115.357C21.8606 115.629 21.4931 115.979 21.2002 116.388C20.8009 116.921 20.5549 117.553 20.4888 118.217C20.4227 118.88 20.5392 119.549 20.8255 120.151C21.0164 120.586 21.2911 120.979 21.6338 121.307C21.9765 121.635 22.3804 121.892 22.8223 122.063C23.4576 122.305 24.1349 122.417 24.8141 122.393V122.387ZM45.2906 120.929H44.9416C45.1359 121.194 45.3657 121.432 45.6243 121.635C45.7331 121.713 45.8376 121.798 45.9374 121.887C46.1819 122.138 46.4407 122.374 46.7125 122.594C47.2772 123.109 47.8316 123.599 48.386 124.104C48.4186 124.127 48.448 124.155 48.4732 124.186H45.5832L45.5524 124.155C45.0391 123.64 44.4847 123.124 43.9508 122.609C43.417 122.094 42.9704 121.676 42.493 121.197C42.4266 121.113 42.3434 121.044 42.2488 120.994C42.1542 120.944 42.0503 120.915 41.9437 120.908C41.6768 120.908 40.6348 120.908 40.4962 120.908C40.4862 120.996 40.4862 121.084 40.4962 121.171C40.4962 121.475 40.4962 121.779 40.4962 122.078C40.4962 122.697 40.4602 123.315 40.4448 123.934C40.4367 124.001 40.4247 124.068 40.4089 124.135C40.397 124.137 40.3848 124.137 40.373 124.135H38.4993H38.448C38.3985 123.992 38.3844 123.84 38.4069 123.691C38.4069 122.774 38.4069 121.851 38.4069 120.934V120.243C38.4069 119.867 38.448 119.491 38.4582 119.115C38.489 118.182 38.4839 117.244 38.4993 116.311C38.4993 115.95 38.5301 115.594 38.5455 115.234C38.5506 115.158 38.5506 115.082 38.5455 115.007C38.4942 114.373 38.602 113.744 38.5455 113.069C38.6661 113.049 38.7879 113.037 38.91 113.033H44.7106C45.4492 113.068 46.1682 113.284 46.8049 113.662C47.5707 114.098 48.1608 114.789 48.4732 115.615C48.7569 116.367 48.8105 117.187 48.6272 117.97C48.4908 118.514 48.2367 119.021 47.8829 119.455C47.4653 119.993 46.915 120.412 46.2865 120.671C45.9699 120.81 45.634 120.898 45.2906 120.934V120.929ZM45.2547 119.058C45.7673 118.863 46.1836 118.475 46.4148 117.976C46.5964 117.656 46.6788 117.288 46.6513 116.921C46.6239 116.554 46.4879 116.203 46.2608 115.914C45.9406 115.506 45.4819 115.231 44.9724 115.141C44.7009 115.079 44.4241 115.045 44.1459 115.038C43.0525 115.038 41.954 115.038 40.8606 115.007C40.769 115.014 40.6781 115.028 40.5886 115.048C40.4859 115.816 40.5886 116.569 40.5064 117.316C40.4551 117.883 40.5064 118.553 40.5064 119.13C40.5783 119.171 40.604 119.197 40.6296 119.197C41.03 119.197 41.4355 119.166 41.8411 119.171C42.5289 119.171 43.2219 119.202 43.8944 119.171C44.264 119.171 44.6387 119.115 45.0083 119.073C45.0907 119.081 45.1739 119.076 45.2547 119.058ZM13.7981 142.199C13.7674 142.423 13.757 142.649 13.7673 142.875C13.7616 143.06 13.7392 143.245 13.7006 143.426C12.9049 143.426 10.2407 143.395 9.52721 143.426C9.50003 143.509 9.47943 143.593 9.46561 143.679C9.46561 144.076 9.46561 144.467 9.46561 144.859C9.40915 146.622 9.38348 148.508 9.38862 150.276C9.38862 151.028 9.38861 151.781 9.35782 152.533C9.36236 152.576 9.36236 152.619 9.35782 152.662H7.05298C7.05298 152.41 7.05298 152.188 7.05298 151.971C7.05298 151.173 7.05298 150.245 7.05298 149.446C7.05298 148.647 7.09918 147.977 7.09918 147.24C7.09918 146.503 7.12485 145.761 7.12998 145.024C7.12998 144.617 7.12998 144.21 7.12998 143.797C7.12513 143.678 7.11313 143.559 7.09405 143.442C7.03563 143.414 6.97322 143.397 6.90925 143.39C6.45753 143.39 3.89603 143.39 3.5367 143.39C3.17737 143.39 3.05931 143.328 3.07471 142.921C3.09524 142.567 3.09524 142.213 3.07471 141.859C3.04785 141.734 3.06227 141.604 3.11578 141.488H13.639C13.7111 141.59 13.7624 141.706 13.7897 141.828C13.817 141.95 13.8199 142.076 13.7981 142.199ZM29.0131 148.013C28.587 147.967 23.5205 147.941 23.2227 147.982C23.1781 147.997 23.1351 148.016 23.0944 148.039C23.0654 148.339 23.0569 148.64 23.0687 148.941C23.0687 149.255 23.0174 149.57 23.0123 149.884C23.0071 150.199 23.0123 150.482 23.0123 150.781C23.0123 151.08 23.0123 151.389 23.0123 151.703C23.0123 152.018 23.0123 152.307 23.0123 152.616C22.9264 152.654 22.8342 152.677 22.7402 152.683C22.1452 152.652 21.5489 152.652 20.9538 152.683C20.9409 152.609 20.9409 152.534 20.9538 152.461C20.9538 151.904 20.9898 151.374 20.9538 150.817C20.9769 150.474 20.9769 150.129 20.9538 149.786C20.9411 149.697 20.9411 149.607 20.9538 149.518C20.9734 149.446 20.9838 149.371 20.9846 149.297C20.9359 148.894 20.9359 148.488 20.9846 148.085C20.9871 148.07 20.9871 148.054 20.9846 148.039C20.8614 147.23 21.0616 146.421 20.9846 145.606C20.9846 145.486 20.9846 145.367 20.9846 145.251C20.9846 145.055 20.9846 144.859 20.9846 144.663C20.9846 144.287 20.9846 143.911 20.9846 143.534C20.9769 143.445 20.9769 143.356 20.9846 143.266C21.0565 142.788 21.0565 142.302 20.9846 141.823C20.9669 141.766 20.9669 141.705 20.9846 141.648C20.9846 141.602 21.0616 141.571 21.1078 141.535C21.154 141.499 21.1386 141.535 21.1489 141.535H22.8634C22.9298 141.541 22.9952 141.555 23.0585 141.576C23.0995 142.06 23.0585 142.54 23.0585 143.019C23.0585 143.498 23.0585 143.983 23.0585 144.467V145.946C23.1188 145.973 23.1828 145.991 23.2484 145.998C24.2186 145.998 25.1939 146.039 26.1692 146.039C26.8263 146.039 27.4885 146.07 28.1455 146.039H28.9515C29.0419 145.856 29.0758 145.649 29.049 145.447C29.049 144.679 29.049 143.9 29.049 143.143C29.049 142.766 29.049 142.364 29.049 141.988C29.049 141.895 29.049 141.808 29.049 141.715C29.0482 141.689 29.0529 141.662 29.0628 141.638C29.0727 141.613 29.0875 141.591 29.1063 141.573C29.1251 141.555 29.1475 141.54 29.1721 141.531C29.1967 141.522 29.223 141.518 29.2492 141.519C29.4494 141.519 30.5684 141.519 31.0561 141.519C31.092 141.581 31.1485 141.633 31.1485 141.684C31.1126 141.968 31.1947 142.272 31.1485 142.56C31.1253 142.693 31.1253 142.829 31.1485 142.962C31.2101 143.349 31.1126 143.741 31.205 144.122C31.2181 144.166 31.2181 144.212 31.205 144.256C31.1308 144.535 31.1151 144.826 31.1588 145.111C31.1895 145.513 31.1895 145.916 31.1588 146.318C31.1588 146.647 31.1588 146.977 31.1588 147.307C31.1588 147.4 31.1588 147.487 31.1588 147.58C31.1588 148.41 31.1588 149.24 31.1588 150.07C31.1588 150.353 31.1588 150.585 31.1588 150.853C31.1588 151.229 31.1588 151.6 31.1588 151.977C31.1588 152.093 31.1588 152.212 31.1588 152.332C31.1588 152.58 31.092 152.672 30.8559 152.662C30.6198 152.652 29.6136 152.662 29.2851 152.662C29.0952 152.662 29.0387 152.59 29.0439 152.41C29.02 151.928 29.0423 151.444 29.1106 150.966C29.1183 150.891 29.1183 150.815 29.1106 150.74C29.1106 150.322 29.1106 149.972 29.1106 149.549C29.1106 149.126 29.1106 148.585 29.1106 148.101C29.0836 148.066 29.0506 148.036 29.0131 148.013ZM41.5793 147.987C41.5793 148.111 41.5793 148.199 41.5793 148.292C41.5793 148.951 41.5793 149.534 41.5793 150.199C41.5793 150.255 41.5793 150.317 41.5793 150.379C41.5793 150.621 41.6717 150.688 41.9232 150.693H44.2691C44.4488 150.693 44.6233 150.668 44.7824 150.652C44.8556 150.642 44.9299 150.642 45.0032 150.652C45.1624 150.698 45.3315 150.698 45.4908 150.652C45.535 150.644 45.5801 150.644 45.6243 150.652C46.1376 150.698 46.6099 150.652 47.1027 150.652C47.2732 150.672 47.4454 150.672 47.616 150.652C47.7202 150.644 47.8249 150.644 47.9291 150.652C47.9825 150.649 48.035 150.667 48.076 150.701C48.117 150.735 48.1434 150.784 48.1498 150.838C48.1498 150.972 48.196 151.106 48.2063 151.24C48.2218 151.342 48.2218 151.446 48.2063 151.549C48.2075 151.937 48.1835 152.324 48.1344 152.709H47.2926H44.4077C43.7301 152.709 43.0577 152.709 42.3544 152.709C41.5125 152.709 40.6604 152.709 39.8186 152.709C39.4438 152.709 39.4182 152.647 39.4182 152.276C39.4182 151.523 39.4182 150.765 39.4182 150.013C39.4182 148.853 39.4182 147.766 39.4182 146.601C39.4182 145.57 39.4182 144.581 39.4182 143.57C39.4182 142.921 39.4182 142.272 39.4182 141.653C39.5311 141.514 39.6594 141.55 39.7724 141.55C40.568 141.55 41.3688 141.55 42.1645 141.55C43.6685 141.55 47.693 141.55 47.9394 141.55C48.1858 141.55 48.119 141.596 48.1498 141.761C48.1604 141.821 48.1604 141.882 48.1498 141.942C48.0677 142.354 48.1036 142.772 48.0626 143.189C48.0653 143.227 48.0594 143.266 48.0453 143.302C48.0312 143.337 48.0094 143.37 47.9813 143.396C47.9533 143.422 47.9197 143.442 47.8831 143.453C47.8466 143.465 47.8079 143.468 47.77 143.462C47.4568 143.462 47.1386 143.462 46.8255 143.462H44.6182H42.5135C42.3441 143.462 42.1799 143.462 42.0002 143.462C41.6152 143.462 41.5895 143.503 41.5793 143.875C41.5793 144.039 41.5793 144.204 41.5793 144.39C41.5793 144.704 41.5793 145.019 41.5433 145.338C41.5392 145.552 41.5651 145.766 41.6203 145.972C42.0251 146.003 42.4311 146.013 42.8369 146.003H46.4302C46.4608 146.088 46.4832 146.176 46.4969 146.266C46.5406 146.577 46.5509 146.891 46.5277 147.204C46.5277 147.307 46.5277 147.41 46.5277 147.518C46.538 147.621 46.538 147.725 46.5277 147.828C46.5277 147.941 46.4302 147.982 46.2865 147.987H41.8411H41.5793ZM6.67312 181.179C6.67312 181.081 6.67312 180.886 6.67312 180.798C6.67312 179.726 6.67312 178.654 6.67312 177.587C6.67312 177.314 6.71419 177.046 6.72446 176.778C6.72446 176.355 6.72446 175.933 6.72446 175.51C6.72446 174.273 6.72445 173.036 6.76039 171.804C6.76039 171.289 6.80145 170.773 6.82199 170.222C6.82199 170.041 6.82199 170.026 6.99138 170.021C7.16078 170.016 8.82909 170.021 9.48615 170.021C10.405 170.021 11.3187 170.021 12.2376 170.021C12.7384 170.023 13.2364 170.097 13.716 170.242C14.0828 170.36 14.4211 170.553 14.7092 170.81C14.9974 171.066 15.2291 171.38 15.3894 171.732C15.6417 172.205 15.7371 172.747 15.6615 173.278C15.5976 174.007 15.2555 174.683 14.7067 175.165C14.6707 175.196 14.4962 175.273 14.4654 175.309C14.4346 175.345 14.5373 175.402 14.5937 175.448C14.6502 175.494 14.7734 175.572 14.8453 175.628C15.2906 175.939 15.6564 176.35 15.913 176.829C16.0887 177.206 16.1827 177.616 16.1889 178.032C16.1951 178.447 16.1133 178.86 15.9489 179.241C15.7719 179.695 15.4757 180.093 15.0917 180.391C14.6057 180.796 14.0107 181.047 13.3823 181.112C12.4788 181.2 11.5805 181.143 10.6822 181.164L6.67312 181.179ZM8.72642 179.236C8.85989 179.236 8.94715 179.283 9.03442 179.288H12.6893C12.9547 179.297 13.2169 179.227 13.4426 179.087C13.6684 178.947 13.8475 178.742 13.9572 178.499C14.0769 178.288 14.1329 178.047 14.1183 177.804C14.1038 177.562 14.0192 177.329 13.8751 177.133C13.732 176.919 13.5377 176.744 13.31 176.624C13.0823 176.504 12.8283 176.444 12.5712 176.448C12.1349 176.448 11.7037 176.422 11.2674 176.412L9.06009 176.376C9.00156 176.363 8.94057 176.368 8.88484 176.39C8.8291 176.412 8.78112 176.45 8.74696 176.499C8.76236 177.386 8.72642 178.288 8.72642 179.236ZM8.77776 174.505C8.90096 174.505 8.99849 174.556 9.09602 174.562H10.3126H12.2016C12.4186 174.567 12.634 174.523 12.832 174.434C13.0301 174.345 13.2058 174.212 13.3464 174.046C13.5079 173.836 13.6058 173.584 13.6286 173.32C13.6513 173.056 13.5979 172.791 13.4747 172.557C13.4128 172.419 13.3172 172.3 13.1969 172.21C13.0766 172.12 12.9355 172.062 12.7868 172.041C12.5815 172.004 12.374 171.98 12.1657 171.969C11.986 171.969 11.8064 171.969 11.6524 171.969H9.35782C9.25515 171.969 9.14735 171.969 9.04469 171.969C8.94202 171.969 8.86502 172.041 8.85989 172.175C8.85732 172.206 8.85732 172.237 8.85989 172.268C8.83422 172.974 8.81882 173.691 8.79829 174.505H8.77776ZM26.0255 170.279V174.056C26.0255 175.087 26.0255 176.118 26.0255 177.149C26.0255 177.345 26.0255 177.541 25.9896 177.742C25.9896 177.834 25.9896 177.922 25.9896 178.015C25.9896 178.185 25.9896 178.35 25.9896 178.53C25.9896 178.711 25.9896 178.741 25.9896 178.85C25.9997 178.925 25.9997 179.001 25.9896 179.076C25.9348 179.426 25.921 179.78 25.9485 180.133C25.9485 180.478 25.9485 180.819 25.9485 181.164H23.9876C23.982 181.095 23.982 181.026 23.9876 180.958V177.922C23.9876 177.463 23.9568 176.999 23.9876 176.541C24.0235 176.175 23.9876 175.814 23.9876 175.448C23.9876 175.082 23.9876 174.716 23.9876 174.345C23.9876 174.087 23.9568 173.83 23.9568 173.567C23.9568 173.304 23.9568 173.021 23.9568 172.747C23.9696 172.595 23.9696 172.441 23.9568 172.289C23.9321 171.945 23.9321 171.601 23.9568 171.258C23.9568 170.902 23.9568 170.552 23.9568 170.196C23.954 170.139 23.954 170.083 23.9568 170.026H25.8664C25.9127 170.053 25.9527 170.089 25.9838 170.133C26.0148 170.176 26.036 170.226 26.046 170.279H26.0255ZM39.372 175.19C39.8853 175.19 40.3627 175.263 40.8401 175.232C41.3175 175.201 41.7743 175.268 42.2415 175.232C42.7086 175.196 43.2116 175.232 43.6942 175.232C44.1767 175.232 44.6284 175.232 45.0956 175.263C45.1426 175.43 45.1565 175.605 45.1366 175.778C45.1469 175.929 45.1469 176.08 45.1366 176.231C45.1007 176.597 45.1366 176.958 45.0904 177.324C45.0889 177.497 45.101 177.669 45.1264 177.84C45.1264 178.309 45.1264 178.778 45.1264 179.247C45.1007 179.744 45.1007 180.243 45.1264 180.741C45.1342 180.825 45.1342 180.91 45.1264 180.994C45.1227 181.04 45.1024 181.083 45.0694 181.115C45.0363 181.148 44.9927 181.167 44.9467 181.169C44.8715 181.174 44.796 181.174 44.7208 181.169H43.3554C43.3026 181.161 43.251 181.147 43.2014 181.128C43.2014 180.942 43.1654 180.736 43.1398 180.514C43.0304 180.565 42.9241 180.621 42.8215 180.685C42.3396 180.945 41.8199 181.127 41.2815 181.226C40.7607 181.322 40.2344 181.386 39.7056 181.416C38.7039 181.432 37.7141 181.196 36.8259 180.731C36.1956 180.397 35.6305 179.952 35.1576 179.417C34.359 178.514 33.8603 177.385 33.7305 176.185C33.5967 174.764 33.9937 173.344 34.8444 172.201C35.2356 171.677 35.713 171.224 36.2561 170.861C36.9604 170.385 37.7588 170.066 38.5969 169.928C39.2518 169.808 39.9185 169.765 40.5834 169.799C41.1874 169.853 41.7814 169.988 42.3493 170.201C42.8421 170.398 43.3092 170.654 43.7404 170.964C43.9549 171.106 44.147 171.28 44.3102 171.479C44.43 171.618 44.5568 171.751 44.69 171.876C44.5258 172.099 44.3438 172.307 44.1459 172.5C43.9406 172.722 43.725 172.933 43.5094 173.144C43.2938 173.356 43.186 173.386 42.9601 173.144C42.8955 173.06 42.8251 172.981 42.7497 172.907C42.1307 172.317 41.3311 171.953 40.4808 171.876C39.9264 171.814 39.3659 171.835 38.8176 171.938C38.0995 172.032 37.4394 172.383 36.9593 172.928C36.888 173.007 36.8126 173.083 36.7335 173.155C36.4259 173.451 36.1738 173.8 35.9892 174.185C35.8386 174.484 35.7645 174.815 35.7736 175.149C35.7476 175.346 35.7356 175.544 35.7376 175.742C35.7347 176.545 36.0271 177.322 36.5589 177.922C36.9015 178.36 37.3365 178.716 37.8327 178.965C38.329 179.213 38.874 179.348 39.4284 179.36C40.1252 179.414 40.8254 179.318 41.4817 179.076C42.0771 178.841 42.6059 178.462 43.0217 177.974C43.1062 177.863 43.1617 177.733 43.1832 177.595C43.2048 177.457 43.1916 177.316 43.1449 177.185C42.7189 177.118 42.2928 177.185 41.877 177.139C41.4612 177.092 41.0608 177.139 40.6553 177.139C40.2498 177.139 39.8134 177.087 39.3668 177.066C39.3275 176.971 39.3016 176.87 39.2898 176.767C39.2898 176.314 39.2898 175.86 39.2898 175.407C39.3132 175.333 39.3406 175.261 39.372 175.19ZM4.13729 209.671C4.13729 209.516 4.13729 209.295 4.13729 209.155C4.13729 208.125 4.13729 207.145 4.18349 206.145C4.18349 205.563 4.23483 204.981 4.23483 204.393C4.23483 203.403 4.23483 202.419 4.23483 201.429C4.23483 200.914 4.26049 200.445 4.27589 199.95C4.27589 199.61 4.27589 199.265 4.27589 198.919C4.27589 198.801 4.27589 198.682 4.27589 198.584C4.38882 198.456 4.51715 198.497 4.63009 198.497C5.9134 198.497 9.04982 198.523 9.33215 198.497C10.0348 198.489 10.7323 198.618 11.3855 198.878C11.5096 198.928 11.6283 198.99 11.7396 199.064C12.3066 199.367 12.8144 199.77 13.2386 200.254C14.1634 201.291 14.6735 202.635 14.6707 204.027C14.6728 204.821 14.4974 205.604 14.1574 206.321C13.9425 206.765 13.6864 207.188 13.3926 207.583C12.8859 208.214 12.2528 208.73 11.5343 209.099C11.0618 209.375 10.5375 209.551 9.99434 209.614C9.90765 209.628 9.82023 209.636 9.73254 209.64C8.96255 209.666 4.27076 209.686 4.13729 209.671ZM6.23166 207.578C6.29172 207.622 6.35993 207.653 6.43223 207.67C6.50454 207.687 6.57947 207.689 6.65259 207.676C7.34558 207.676 8.03343 207.676 8.70589 207.676C9.01935 207.682 9.33255 207.655 9.64014 207.594C10.4311 207.446 11.1521 207.042 11.6934 206.444C12.0858 206.025 12.3727 205.518 12.5302 204.965C12.6594 204.485 12.6897 203.983 12.6191 203.49C12.5485 202.997 12.3785 202.524 12.1195 202.1C11.9835 201.901 11.8325 201.713 11.6678 201.538C11.355 201.179 10.9688 200.893 10.5356 200.698C10.1023 200.503 9.6323 200.405 9.15762 200.409C8.75209 200.409 8.34656 200.409 7.94617 200.409L6.50372 200.368C6.33946 200.368 6.28299 200.424 6.27786 200.584C6.27786 200.857 6.27786 201.131 6.27786 201.399C6.27786 202.471 6.27786 203.543 6.23166 204.61C6.19573 205.45 6.23166 206.295 6.1906 207.14C6.16784 207.287 6.18195 207.438 6.23166 207.578ZM25.5327 198.559C25.6193 198.543 25.7067 198.533 25.7945 198.528H27.0111C27.3704 198.528 27.3909 198.528 27.5244 198.863C27.6579 199.198 27.8016 199.626 27.9556 200.002C28.3971 201.089 28.8539 202.172 29.2954 203.259C29.6444 204.11 29.973 204.97 30.322 205.836C30.5633 206.434 30.8354 207.027 31.0715 207.625L31.4257 208.454C31.554 208.759 31.6824 209.068 31.8004 209.372C31.8275 209.462 31.8497 209.553 31.8671 209.645C31.7877 209.663 31.7071 209.675 31.6259 209.681H29.7728C29.7461 209.682 29.72 209.674 29.6985 209.658C29.6771 209.642 29.6617 209.619 29.6547 209.593C29.4456 208.967 29.2022 208.353 28.9258 207.753C28.8763 207.638 28.8351 207.519 28.8026 207.398C28.7865 207.319 28.7419 207.249 28.6774 207.202C28.6129 207.154 28.5332 207.132 28.4535 207.14C27.9402 207.14 27.4012 207.14 26.8776 207.14C26.4721 207.14 26.0666 207.109 25.661 207.099H24.2648C24.1821 207.09 24.0989 207.109 24.0289 207.154C23.9588 207.199 23.9062 207.267 23.8798 207.346C23.7104 207.764 23.4897 208.274 23.3203 208.692L23.0174 209.449C22.9961 209.529 22.9474 209.6 22.8799 209.648C22.8124 209.696 22.7303 209.718 22.6478 209.712C22.1345 209.712 20.8563 209.712 20.8152 209.712C20.7742 209.712 22.0113 206.764 22.2885 206.104C22.6119 205.31 22.9815 204.558 23.3151 203.733C23.387 203.553 23.4691 203.378 23.5461 203.218C23.849 202.548 24.157 201.878 24.4547 201.203C24.7525 200.528 24.9681 199.955 25.2452 199.332L25.5327 198.559ZM26.431 201.569C26.3762 201.63 26.3264 201.695 26.2822 201.764C26.1692 201.991 26.0614 202.223 25.9639 202.46C25.6251 203.233 25.2966 204.007 24.9629 204.78C24.7525 205.264 24.7833 205.295 25.3017 205.326H27.5552H27.7811C27.8581 205.326 27.9299 205.295 27.9402 205.192C27.7759 204.795 27.6065 204.393 27.4269 203.986C27.2472 203.579 27.1292 203.197 26.9598 202.811C26.805 202.388 26.6285 201.973 26.431 201.569ZM48.1909 198.894C47.9342 199.296 47.6776 199.687 47.3799 200.079C47.3029 200.193 47.2156 200.301 47.1489 200.414C46.8101 200.986 46.4405 201.533 46.1222 202.11C45.6089 203.022 45.0237 203.909 44.4693 204.805C44.2845 205.099 44.0946 205.388 43.9046 205.676C43.826 205.805 43.7834 205.953 43.7814 206.104C43.7814 206.949 43.7044 207.733 43.7506 208.573C43.7743 208.936 43.7571 209.301 43.6993 209.66H43.6634H41.5793C41.5793 209.557 41.5485 209.465 41.5433 209.372C41.5433 209.057 41.5433 208.738 41.5433 208.424C41.5433 208.259 41.5741 208.094 41.5741 207.908C41.5741 207.501 41.5741 207.156 41.5741 206.748C41.569 206.675 41.569 206.601 41.5741 206.527C41.5962 206.369 41.5857 206.209 41.5434 206.055C41.501 205.902 41.4276 205.759 41.3277 205.635C40.3011 204.099 39.2744 202.553 38.2478 200.997C37.7345 200.244 37.2571 199.486 36.7643 198.724C36.7242 198.652 36.6882 198.578 36.6565 198.502V198.461H39.0126L39.2334 198.785C39.9469 199.883 40.6656 200.981 41.3688 202.084C41.6851 202.596 42.0278 203.092 42.3955 203.568C42.4417 203.625 42.493 203.677 42.5443 203.733C42.5957 203.692 42.6419 203.671 42.6624 203.635C42.8729 203.285 43.0782 202.934 43.2835 202.605C43.8738 201.61 44.5309 200.656 45.1572 199.687C45.306 199.461 45.4395 199.224 45.5832 198.992L45.8039 198.651C45.8492 198.581 45.9108 198.523 45.9836 198.481H48.3141C48.3654 198.688 48.2525 198.791 48.1909 198.894Z" fill="#F2F1EA"/>
<path d="M43.7918 247.362H0V249.166H43.7918V247.362Z" fill="#F2F1EA"/>
<path d="M256.396 247.362H212.604V249.166H256.396V247.362Z" fill="#F2F1EA"/>
</g>
<defs>
<clipPath id="clip0_321_183">
<rect width="271" height="345" fill="white"/>
</clipPath>
</defs>
</svg>
