<svg width="184" height="39" viewBox="0 0 184 39" fill="none" xmlns="http://www.w3.org/2000/svg">
<path d="M139.33 2.65096C136.832 1.02223 133.942 0.12974 130.978 0.071914C130.978 0.071914 119.852 -0.087146 119.803 0.071914C119.755 0.230974 119.803 38.5493 119.907 38.6515C120.011 38.7538 127.373 38.9469 127.714 38.6894L127.8 23.7832C133.363 23.8627 134.739 23.4386 136.701 22.844C138.422 22.3176 143.533 19.3144 143.926 13.6337C144.189 9.78215 142.724 4.92324 139.33 2.65096ZM136.17 14.3911C135.833 14.9122 135.392 15.3554 134.877 15.6919C134.361 16.0285 133.782 16.2511 133.177 16.3453C131.646 16.5952 127.915 16.6482 127.74 16.4816C127.566 16.315 127.674 6.52521 127.874 6.36615C128.074 6.20709 130.425 6.21466 131.212 6.28283C132.232 6.37372 133.511 6.50248 134.765 7.74467C136.018 8.98685 136.278 9.48675 136.504 11.0168C136.716 12.3309 136.538 13.6829 136.17 14.3911V14.3911Z" fill="#F2F1EA"/>
<path d="M100.261 2.65096C97.7619 1.02193 94.8702 0.129438 91.9054 0.071914C91.9054 0.071914 80.7789 -0.087146 80.7343 0.071914C80.6898 0.230974 80.7344 38.5493 80.8382 38.6515C80.942 38.7538 88.3041 38.9469 88.6268 38.6894L88.7084 23.7832C94.2717 23.8627 95.6514 23.4386 97.6097 22.844C99.3269 22.3214 104.445 19.322 104.835 13.6526C105.12 9.78215 103.655 4.92324 100.261 2.65096ZM97.1015 14.3911C96.764 14.9122 96.3233 15.3554 95.8078 15.6919C95.2922 16.0285 94.7134 16.2511 94.1085 16.3453C92.5767 16.5952 88.8419 16.6482 88.6713 16.4816C88.5007 16.315 88.6008 6.52521 88.8048 6.36615C89.0088 6.20709 91.3565 6.21466 92.1428 6.28283C93.1627 6.37372 94.4386 6.50248 95.6922 7.74467C96.9458 8.98685 97.2091 9.48675 97.4353 11.0168C97.6467 12.3309 97.4687 13.6829 97.1015 14.3911Z" fill="#F2F1EA"/>
<path d="M19.5494 2.81391C17.0481 1.19163 14.1562 0.30694 11.1934 0.257594C11.1934 0.257594 0.0631132 0.0947467 0.0223157 0.253807C-0.0184817 0.412867 0.0223158 38.7274 0.126164 38.8296C0.230012 38.9319 7.59209 39.125 7.9333 38.8713L8.0149 23.9613C13.5782 24.0446 14.9579 23.6167 16.9162 23.0221C18.6334 22.4995 23.7516 19.5001 24.141 13.8307C24.408 9.96783 22.943 5.10892 19.5494 2.81391ZM16.3895 14.5541C16.0509 15.0754 15.6095 15.5188 15.0934 15.8559C14.5774 16.1931 13.9982 16.4165 13.3927 16.512C11.8647 16.7582 8.12987 16.8112 7.95927 16.6446C7.78866 16.4779 7.8888 6.68816 8.09278 6.53289C8.29677 6.37762 10.6445 6.37762 11.4308 6.44578C12.4507 6.53668 13.7265 6.66544 14.9801 7.90762C16.2337 9.1498 16.4933 9.64971 16.7196 11.1797C16.9347 12.4976 16.7567 13.8648 16.3895 14.5578V14.5541Z" fill="#F2F1EA"/>
<path d="M65.773 14.5463C65.2055 4.88534 60.2394 0.0908203 51.6942 0.0908203C43.301 0.0908203 37.8082 4.37787 37.3669 14.5463C36.8958 25.4723 43.1156 29.1231 51.5087 29.1231C59.9019 29.1231 66.4109 25.4609 65.773 14.5463ZM51.212 23.3893C46.2385 23.3893 45.378 19.8256 45.378 14.1449C45.378 9.04741 46.9506 4.91185 51.4271 4.82854C56.3414 4.73386 57.3836 9.06256 57.3836 14.1601C57.3836 19.9354 57.2315 23.3893 51.212 23.3893Z" fill="#F2F1EA"/>
<path d="M54.7616 36.6974C54.7307 37.0537 54.6271 37.3995 54.4574 37.7124C54.3308 37.9539 54.1407 38.1545 53.9085 38.2918L53.6526 38.4698C53.1998 38.7051 52.7055 38.8455 52.1988 38.8826C52.1407 38.8863 52.0825 38.8863 52.0244 38.8826C51.653 38.8979 51.2809 38.8827 50.9118 38.8372C50.282 38.7425 49.706 38.4215 49.2873 37.932C49.1209 37.7306 48.9949 37.4977 48.9164 37.2466C48.844 37.0409 48.804 36.8249 48.7977 36.6065C48.7977 36.5043 48.7977 36.3982 48.7977 36.3073C48.7997 36.2708 48.7997 36.2341 48.7977 36.1975C48.7977 36.1293 48.7977 36.0612 48.7977 35.9968C48.7977 35.8529 48.7977 35.7203 48.82 35.584C48.852 35.3175 48.9142 35.0557 49.0054 34.8039C49.0846 34.5941 49.1853 34.3935 49.3058 34.2055C49.4939 33.9257 49.7494 33.7001 50.0476 33.5503C50.3858 33.3749 50.7508 33.2596 51.1269 33.2095C51.6895 33.1469 52.258 33.1686 52.8144 33.2738C53.0422 33.3454 53.2632 33.4379 53.4746 33.5503C53.7656 33.6676 54.0214 33.8609 54.2164 34.1108C54.3977 34.3192 54.5365 34.5626 54.6243 34.8266C54.7254 35.1647 54.7827 35.5148 54.7949 35.868C54.8061 36.0913 54.8061 36.3151 54.7949 36.5384C54.7949 36.5762 54.7949 36.6141 54.7949 36.6558" fill="#F2F1EA"/>
<path d="M154.47 0.477274C154.634 0.227323 162.096 0.09856 162.693 0.371234C163.409 0.689354 169.232 14.0049 169.74 14.0996C170.073 14.164 175.27 0.526507 175.533 0.371234C175.904 0.155367 183.837 0.0834115 183.993 0.371234C184.226 0.795394 173.868 21.424 173.575 23.4425C173.404 24.6468 174.02 38.3714 173.575 38.7085C173.263 38.9471 166.053 39.2197 166.135 38.7085C166.342 37.4057 165.986 25.0255 165.875 24.2454C165.456 21.352 154.255 0.806756 154.47 0.477274Z" fill="#F2F1EA"/>
</svg>
